<mxfile host="drawio-plugin" modified="2022-09-13T09:43:50.692Z" agent="5.0 (Macintosh; Intel Mac OS X 10_14_6) AppleWebKit/537.36 (KHTML, like Gecko) Chrome/98.0.4758.102 Safari/537.36" etag="OA4S-0pR3MsShPPFP8S3" version="15.5.4" type="embed"><diagram id="Kf3mRJmbqOAMH1zy04or" name="Page-1"><mxGraphModel dx="749" dy="767" grid="0" gridSize="10" guides="1" tooltips="1" connect="1" arrows="1" fold="1" page="1" pageScale="1" pageWidth="850" pageHeight="1100" background="none" math="0" shadow="0"><root><mxCell id="0"/><mxCell id="1" parent="0"/><mxCell id="10" value="" style="edgeStyle=orthogonalEdgeStyle;orthogonalLoop=1;jettySize=auto;html=1;startArrow=ERone;startFill=0;" parent="1" source="2" target="9" edge="1"><mxGeometry relative="1" as="geometry"/></mxCell><mxCell id="2" value="prospect" style="swimlane;fillColor=#ffe6cc;strokeColor=#d79b00;rounded=1;startSize=23;" parent="1" vertex="1"><mxGeometry x="52" y="74" width="87" height="133" as="geometry"/></mxCell><mxCell id="60" value="- id&#10;- sales_id&#10;- first_name&#10;- last_name&#10;- email&#10;- phone&#10;- mobile&#10;- company_name&#10;- date_created&#10;- date_updated" style="text;align=left;verticalAlign=middle;resizable=0;points=[];autosize=1;strokeColor=none;fillColor=none;fontSize=8;horizontal=1;spacing=2;fontStyle=0;" parent="2" vertex="1"><mxGeometry x="5.5" y="24" width="76" height="108" as="geometry"/></mxCell><mxCell id="20" style="edgeStyle=orthogonalEdgeStyle;orthogonalLoop=1;jettySize=auto;html=1;exitX=0.5;exitY=1;exitDx=0;exitDy=0;entryX=0.5;entryY=0;entryDx=0;entryDy=0;startArrow=ERone;startFill=0;" parent="1" source="3" target="19" edge="1"><mxGeometry relative="1" as="geometry"/></mxCell><mxCell id="3" value="client" style="swimlane;fillColor=#ffe6cc;strokeColor=#d79b00;rounded=1;startSize=23;" parent="1" vertex="1"><mxGeometry x="52" y="329" width="87" height="133" as="geometry"/></mxCell><mxCell id="61" value="- id&#10;- sales_id&#10;- first_name&#10;- last_name&#10;- email&#10;- phone&#10;- mobile&#10;- company_name&#10;- date_created&#10;- date_updated" style="text;align=left;verticalAlign=middle;resizable=0;points=[];autosize=1;strokeColor=none;fillColor=none;fontSize=8;horizontal=1;spacing=2;fontStyle=0;" parent="3" vertex="1"><mxGeometry x="5.5" y="25" width="76" height="108" as="geometry"/></mxCell><mxCell id="23" style="edgeStyle=orthogonalEdgeStyle;orthogonalLoop=1;jettySize=auto;html=1;exitX=0.5;exitY=1;exitDx=0;exitDy=0;entryX=0.5;entryY=0;entryDx=0;entryDy=0;startArrow=ERone;startFill=0;" parent="1" source="4" target="22" edge="1"><mxGeometry relative="1" as="geometry"/></mxCell><mxCell id="4" value="contract" style="swimlane;fillColor=#ffe6cc;strokeColor=#d79b00;rounded=1;" parent="1" vertex="1"><mxGeometry x="52" y="602" width="87" height="111" as="geometry"/></mxCell><mxCell id="62" value="- id&#10;- sales_id&#10;- client_id&#10;- status&#10;- amount&#10;- payment_due&#10;- date_created&#10;- date_updated" style="text;align=left;verticalAlign=middle;resizable=0;points=[];autosize=1;strokeColor=none;fillColor=none;fontSize=8;horizontal=1;spacing=2;fontStyle=0;" parent="4" vertex="1"><mxGeometry x="9" y="23" width="68" height="88" as="geometry"/></mxCell><mxCell id="5" value="event" style="swimlane;fillColor=#ffe6cc;strokeColor=#d79b00;rounded=1;" parent="1" vertex="1"><mxGeometry x="52" y="840" width="87" height="117" as="geometry"/></mxCell><mxCell id="63" value="- id&lt;br&gt;- client_id&lt;br&gt;- support_id&lt;br&gt;- status&lt;br&gt;- attendees&lt;br&gt;- event_date&lt;br&gt;- notes&lt;br&gt;- date_created&lt;br&gt;- date_updated" style="text;align=left;verticalAlign=middle;resizable=0;points=[];autosize=1;strokeColor=none;fillColor=none;fontSize=8;horizontal=1;spacing=2;fontStyle=0;html=1;" parent="5" vertex="1"><mxGeometry x="10" y="22" width="68" height="98" as="geometry"/></mxCell><mxCell id="35" style="edgeStyle=orthogonalEdgeStyle;orthogonalLoop=1;jettySize=auto;html=1;exitX=0;exitY=0.5;exitDx=0;exitDy=0;entryX=1;entryY=0.5;entryDx=0;entryDy=0;startArrow=ERone;startFill=0;" parent="1" source="7" target="31" edge="1"><mxGeometry relative="1" as="geometry"><Array as="points"><mxPoint x="330" y="945"/><mxPoint x="330" y="870"/></Array></mxGeometry></mxCell><mxCell id="7" value="support" style="swimlane;fillColor=#ffe6cc;strokeColor=#d79b00;rounded=1;" parent="1" vertex="1"><mxGeometry x="387" y="894" width="87" height="101" as="geometry"/></mxCell><mxCell id="72" value="- id&#10;- first_name&#10;- last_name&#10;- email&#10;- phone&#10;- mobile&#10;- date_created" style="text;align=left;verticalAlign=middle;resizable=0;points=[];autosize=1;strokeColor=none;fillColor=none;fontSize=8;horizontal=1;spacing=2;fontStyle=0;" parent="7" vertex="1"><mxGeometry x="10.5" y="23" width="66" height="78" as="geometry"/></mxCell><mxCell id="8" value="admin" style="swimlane;fillColor=#ffe6cc;strokeColor=#d79b00;rounded=1;" parent="1" vertex="1"><mxGeometry x="480" y="410" width="70" height="70" as="geometry"/></mxCell><mxCell id="11" style="edgeStyle=orthogonalEdgeStyle;orthogonalLoop=1;jettySize=auto;html=1;exitX=0.5;exitY=1;exitDx=0;exitDy=0;entryX=0.5;entryY=0;entryDx=0;entryDy=0;endArrow=ERone;endFill=0;" parent="1" source="9" target="3" edge="1"><mxGeometry relative="1" as="geometry"/></mxCell><mxCell id="9" value="become" style="rhombus;whiteSpace=wrap;html=1;fillColor=#d5e8d4;strokeColor=#82b366;rounded=1;" parent="1" vertex="1"><mxGeometry x="55" y="233" width="80" height="80" as="geometry"/></mxCell><mxCell id="17" style="edgeStyle=orthogonalEdgeStyle;orthogonalLoop=1;jettySize=auto;html=1;entryX=1;entryY=0.5;entryDx=0;entryDy=0;endArrow=ERzeroToMany;endFill=0;" parent="1" source="16" target="3" edge="1"><mxGeometry relative="1" as="geometry"/></mxCell><mxCell id="69" style="edgeStyle=orthogonalEdgeStyle;rounded=1;orthogonalLoop=1;jettySize=auto;html=1;exitX=1;exitY=0.5;exitDx=0;exitDy=0;entryX=0;entryY=0.5;entryDx=0;entryDy=0;fontSize=8;endArrow=none;endFill=0;startSize=6;startArrow=classic;startFill=1;" parent="1" source="16" target="6" edge="1"><mxGeometry relative="1" as="geometry"/></mxCell><mxCell id="16" value="manages" style="rhombus;whiteSpace=wrap;html=1;fillColor=#d5e8d4;strokeColor=#82b366;rounded=1;" parent="1" vertex="1"><mxGeometry x="210" y="355" width="80" height="80" as="geometry"/></mxCell><mxCell id="21" style="edgeStyle=orthogonalEdgeStyle;orthogonalLoop=1;jettySize=auto;html=1;exitX=0.5;exitY=1;exitDx=0;exitDy=0;entryX=0.5;entryY=0;entryDx=0;entryDy=0;startArrow=none;startFill=0;endArrow=ERzeroToMany;endFill=0;" parent="1" source="19" target="4" edge="1"><mxGeometry relative="1" as="geometry"/></mxCell><mxCell id="19" value="is assigned" style="rhombus;whiteSpace=wrap;html=1;fillColor=#d5e8d4;strokeColor=#82b366;rounded=1;" parent="1" vertex="1"><mxGeometry x="55" y="491" width="80" height="80" as="geometry"/></mxCell><mxCell id="24" style="edgeStyle=orthogonalEdgeStyle;orthogonalLoop=1;jettySize=auto;html=1;exitX=0.5;exitY=1;exitDx=0;exitDy=0;entryX=0.5;entryY=0;entryDx=0;entryDy=0;startArrow=none;startFill=0;endArrow=ERzeroToMany;endFill=0;" parent="1" source="22" target="5" edge="1"><mxGeometry relative="1" as="geometry"/></mxCell><mxCell id="22" value="is assigned" style="rhombus;whiteSpace=wrap;html=1;fillColor=#d5e8d4;strokeColor=#82b366;rounded=1;" parent="1" vertex="1"><mxGeometry x="55" y="736" width="80" height="80" as="geometry"/></mxCell><mxCell id="27" style="edgeStyle=orthogonalEdgeStyle;orthogonalLoop=1;jettySize=auto;html=1;exitX=0;exitY=0.5;exitDx=0;exitDy=0;endArrow=ERzeroToMany;endFill=0;entryX=1;entryY=0.25;entryDx=0;entryDy=0;" parent="1" source="25" target="4" edge="1"><mxGeometry relative="1" as="geometry"><mxPoint x="130" y="630" as="targetPoint"/></mxGeometry></mxCell><mxCell id="70" style="edgeStyle=orthogonalEdgeStyle;rounded=1;orthogonalLoop=1;jettySize=auto;html=1;exitX=1;exitY=0.5;exitDx=0;exitDy=0;fontSize=8;endArrow=none;endFill=0;startSize=6;entryX=0;entryY=0.5;entryDx=0;entryDy=0;startArrow=classic;startFill=1;" parent="1" source="25" target="6" edge="1"><mxGeometry relative="1" as="geometry"><mxPoint x="370.8275862068965" y="122.89655172413799" as="targetPoint"/></mxGeometry></mxCell><mxCell id="25" value="manages" style="rhombus;whiteSpace=wrap;html=1;fillColor=#d5e8d4;strokeColor=#82b366;rounded=1;" parent="1" vertex="1"><mxGeometry x="210" y="590" width="80" height="80" as="geometry"/></mxCell><mxCell id="32" style="edgeStyle=orthogonalEdgeStyle;orthogonalLoop=1;jettySize=auto;html=1;exitX=0;exitY=0.5;exitDx=0;exitDy=0;endArrow=ERzeroToMany;endFill=0;" parent="1" source="31" edge="1"><mxGeometry relative="1" as="geometry"><mxPoint x="139" y="870" as="targetPoint"/></mxGeometry></mxCell><mxCell id="71" style="edgeStyle=orthogonalEdgeStyle;rounded=1;orthogonalLoop=1;jettySize=auto;html=1;exitX=1;exitY=0.5;exitDx=0;exitDy=0;entryX=0;entryY=0.5;entryDx=0;entryDy=0;fontSize=8;endArrow=none;endFill=0;startSize=23;" parent="1" source="31" target="6" edge="1"><mxGeometry relative="1" as="geometry"/></mxCell><mxCell id="31" value="manages" style="rhombus;whiteSpace=wrap;html=1;fillColor=#d5e8d4;strokeColor=#82b366;rounded=1;" parent="1" vertex="1"><mxGeometry x="210" y="830" width="80" height="80" as="geometry"/></mxCell><mxCell id="41" value="" style="edgeStyle=entityRelationEdgeStyle;fontSize=12;html=1;endArrow=ERzeroToMany;startArrow=none;entryX=1;entryY=0.5;entryDx=0;entryDy=0;startFill=0;startSize=12;" parent="1" source="12" target="2" edge="1"><mxGeometry width="100" height="100" relative="1" as="geometry"><mxPoint x="380" y="150" as="sourcePoint"/><mxPoint x="230" y="212" as="targetPoint"/></mxGeometry></mxCell><mxCell id="12" value="manages" style="rhombus;whiteSpace=wrap;html=1;fillColor=#d5e8d4;strokeColor=#82b366;rounded=1;" parent="1" vertex="1"><mxGeometry x="220" y="100" width="80" height="80" as="geometry"/></mxCell><mxCell id="65" value="" style="group;" parent="1" vertex="1" connectable="0"><mxGeometry x="387" y="84" width="87" height="136" as="geometry"/></mxCell><mxCell id="6" value="sales" style="swimlane;fillColor=#ffe6cc;strokeColor=#d79b00;rounded=1;whiteSpace=wrap;" parent="65" vertex="1"><mxGeometry x="-3" y="3" width="87" height="106" as="geometry"/></mxCell><mxCell id="64" value="- id&#10;- first_name&#10;- last_name&#10;- email&#10;- phone&#10;- mobile&#10;- date_created" style="text;align=left;verticalAlign=middle;resizable=0;points=[];autosize=1;strokeColor=none;fillColor=none;fontSize=8;horizontal=1;spacing=2;fontStyle=0;" parent="6" vertex="1"><mxGeometry x="10.5" y="27" width="66" height="78" as="geometry"/></mxCell><mxCell id="68" style="edgeStyle=orthogonalEdgeStyle;rounded=1;orthogonalLoop=1;jettySize=auto;html=1;exitX=0;exitY=0.5;exitDx=0;exitDy=0;entryX=1;entryY=0.5;entryDx=0;entryDy=0;fontSize=1;endArrow=classic;endFill=1;startSize=6;startArrow=ERone;startFill=0;strokeWidth=1;jumpSize=6;shadow=0;" parent="1" source="6" target="12" edge="1"><mxGeometry relative="1" as="geometry"/></mxCell></root></mxGraphModel></diagram></mxfile>